<svg width="35" height="34" viewBox="0 0 35 34" fill="none" xmlns="http://www.w3.org/2000/svg">
<g filter="url(#filter0_d_1_17)">
<path d="M34.75 18.0188C34.75 26.5314 27.3241 33.4626 18.125 33.4626C8.92587 33.4626 1.5 26.5314 1.5 18.0188C1.5 9.50622 8.92587 2.57501 18.125 2.57501C27.3241 2.57501 34.75 9.50622 34.75 18.0188Z" stroke="#C283AD" stroke-width="0.5" shape-rendering="crispEdges"/>
</g>
<path d="M33.5 16.2751C33.5 25.117 26.0653 32.3001 16.875 32.3001C7.68466 32.3001 0.25 25.117 0.25 16.2751C0.25 7.43312 7.68466 0.25 16.875 0.25C26.0653 0.25 33.5 7.43312 33.5 16.2751Z" stroke="black" stroke-width="0.5"/>
<path d="M14.0023 20.0638H12.2069V14.2457H14.0819C14.6463 14.2457 15.1292 14.3621 15.5308 14.5951C15.9323 14.8262 16.24 15.1585 16.4541 15.5923C16.6681 16.0241 16.7751 16.5411 16.7751 17.1434C16.7751 17.7494 16.6671 18.2712 16.4512 18.7087C16.2353 19.1443 15.9209 19.4796 15.508 19.7144C15.0952 19.9474 14.5933 20.0638 14.0023 20.0638ZM12.9114 19.4388H13.9569C14.438 19.4388 14.8366 19.346 15.1529 19.1604C15.4692 18.9748 15.705 18.7106 15.8603 18.3678C16.0156 18.025 16.0933 17.6169 16.0933 17.1434C16.0933 16.6737 16.0166 16.2693 15.8631 15.9303C15.7097 15.5894 15.4806 15.328 15.1756 15.1462C14.8707 14.9625 14.491 14.8707 14.0364 14.8707H12.9114V19.4388ZM21.1387 15.7002C21.1046 15.4123 20.9664 15.1888 20.7239 15.0298C20.4815 14.8707 20.1842 14.7911 19.8319 14.7911C19.5743 14.7911 19.3489 14.8328 19.1558 14.9161C18.9645 14.9994 18.8148 15.114 18.7069 15.2599C18.6008 15.4057 18.5478 15.5714 18.5478 15.757C18.5478 15.9123 18.5847 16.0459 18.6586 16.1576C18.7344 16.2674 18.8309 16.3593 18.9484 16.4332C19.0658 16.5051 19.1889 16.5648 19.3177 16.6121C19.4465 16.6576 19.5648 16.6945 19.6728 16.7229L20.2637 16.882C20.4152 16.9218 20.5838 16.9767 20.7694 17.0468C20.9569 17.1169 21.1359 17.2125 21.3063 17.3337C21.4787 17.453 21.6207 17.6065 21.7325 17.794C21.8442 17.9815 21.9001 18.2116 21.9001 18.4843C21.9001 18.7987 21.8177 19.0828 21.6529 19.3366C21.49 19.5904 21.2514 19.7921 20.937 19.9417C20.6245 20.0913 20.2448 20.1661 19.7978 20.1661C19.3811 20.1661 19.0203 20.0989 18.7154 19.9644C18.4124 19.8299 18.1738 19.6424 17.9995 19.4019C17.8272 19.1614 17.7296 18.882 17.7069 18.5638H18.4342C18.4531 18.7835 18.527 18.9654 18.6558 19.1093C18.7864 19.2513 18.9512 19.3574 19.1501 19.4275C19.3508 19.4957 19.5667 19.5298 19.7978 19.5298C20.0667 19.5298 20.3082 19.4862 20.5222 19.3991C20.7363 19.3101 20.9058 19.1869 21.0308 19.0298C21.1558 18.8707 21.2183 18.6851 21.2183 18.4729C21.2183 18.2798 21.1643 18.1226 21.0563 18.0013C20.9484 17.8801 20.8063 17.7816 20.6302 17.7059C20.4541 17.6301 20.2637 17.5638 20.0592 17.507L19.3433 17.3025C18.8887 17.1718 18.5289 16.9852 18.2637 16.7428C17.9986 16.5004 17.866 16.1832 17.866 15.7911C17.866 15.4654 17.9541 15.1813 18.1302 14.9388C18.3082 14.6945 18.5469 14.5051 18.8461 14.3707C19.1472 14.2343 19.4834 14.1661 19.8546 14.1661C20.2296 14.1661 20.563 14.2334 20.8546 14.3678C21.1463 14.5004 21.3774 14.6822 21.5478 14.9133C21.7202 15.1443 21.8111 15.4066 21.8205 15.7002H21.1387Z" fill="#571881"/>
<defs>
<filter id="filter0_d_1_17" x="-2.75" y="2.32501" width="41.75" height="39.3876" filterUnits="userSpaceOnUse" color-interpolation-filters="sRGB">
<feFlood flood-opacity="0" result="BackgroundImageFix"/>
<feColorMatrix in="SourceAlpha" type="matrix" values="0 0 0 0 0 0 0 0 0 0 0 0 0 0 0 0 0 0 127 0" result="hardAlpha"/>
<feOffset dy="4"/>
<feGaussianBlur stdDeviation="2"/>
<feComposite in2="hardAlpha" operator="out"/>
<feColorMatrix type="matrix" values="0 0 0 0 0 0 0 0 0 0 0 0 0 0 0 0 0 0 0.25 0"/>
<feBlend mode="normal" in2="BackgroundImageFix" result="effect1_dropShadow_1_17"/>
<feBlend mode="normal" in="SourceGraphic" in2="effect1_dropShadow_1_17" result="shape"/>
</filter>
</defs>
</svg>
